<svg xmlns="http://www.w3.org/2000/svg" xmlns:xlink="http://www.w3.org/1999/xlink" contentStyleType="text/css" height="1043px" preserveAspectRatio="none" style="width:1307px;height:1043px;background:#FFFFFF;" version="1.1" viewBox="0 0 1307 1043" width="1307px" zoomAndPan="magnify"><defs/><g><!--cluster interfaz--><g id="cluster_interfaz"><path d="M610.5,6 L673.0439,6 A3.75,3.75 0 0 1 675.5439,8.5 L682.5439,28.2969 L839.5,28.2969 A2.5,2.5 0 0 1 842,30.7969 L842,265.47 A2.5,2.5 0 0 1 839.5,267.97 L610.5,267.97 A2.5,2.5 0 0 1 608,265.47 L608,8.5 A2.5,2.5 0 0 1 610.5,6 " fill="none" style="stroke:#000000;stroke-width:1.5;"/><line style="stroke:#000000;stroke-width:1.5;" x1="608" x2="682.5439" y1="28.2969" y2="28.2969"/><text fill="#000000" font-family="sans-serif" font-size="14" font-weight="bold" lengthAdjust="spacing" textLength="61.5439" x="612" y="20.9951">interfaz</text></g><!--cluster dominio--><g id="cluster_dominio"><path d="M8.5,291.97 L72.9102,291.97 A3.75,3.75 0 0 1 75.4102,294.47 L82.4102,314.2669 L737.5,314.2669 A2.5,2.5 0 0 1 740,316.7669 L740,1034.27 A2.5,2.5 0 0 1 737.5,1036.77 L8.5,1036.77 A2.5,2.5 0 0 1 6,1034.27 L6,294.47 A2.5,2.5 0 0 1 8.5,291.97 " fill="none" style="stroke:#000000;stroke-width:1.5;"/><line style="stroke:#000000;stroke-width:1.5;" x1="6" x2="82.4102" y1="314.2669" y2="314.2669"/><text fill="#000000" font-family="sans-serif" font-size="14" font-weight="bold" lengthAdjust="spacing" textLength="63.4102" x="10" y="306.9651">dominio</text></g><!--cluster excepciones--><g id="cluster_excepciones"><path d="M868.5,87.49 L966.3516,87.49 A3.75,3.75 0 0 1 968.8516,89.99 L975.8516,109.7869 L1297.5,109.7869 A2.5,2.5 0 0 1 1300,112.2869 L1300,518.85 A2.5,2.5 0 0 1 1297.5,521.35 L868.5,521.35 A2.5,2.5 0 0 1 866,518.85 L866,89.99 A2.5,2.5 0 0 1 868.5,87.49 " fill="none" style="stroke:#000000;stroke-width:1.5;"/><line style="stroke:#000000;stroke-width:1.5;" x1="866" x2="975.8516" y1="109.7869" y2="109.7869"/><text fill="#000000" font-family="sans-serif" font-size="14" font-weight="bold" lengthAdjust="spacing" textLength="96.8516" x="870" y="102.4851">excepciones</text></g><!--class Menu--><g id="elem_Menu"><rect codeLine="2" fill="#F1F1F1" height="210.9688" id="Menu" rx="2.5" ry="2.5" style="stroke:#181818;stroke-width:0.5;" width="202.3945" x="623.8" y="41"/><ellipse cx="701.528" cy="57" fill="#ADD1B2" rx="11" ry="11" style="stroke:#181818;stroke-width:1;"/><path d="M704.4968,62.6406 Q703.9187,62.9375 703.278,63.0781 Q702.6374,63.2344 701.9343,63.2344 Q699.4343,63.2344 698.1062,61.5938 Q696.7937,59.9375 696.7937,56.8125 Q696.7937,53.6875 698.1062,52.0313 Q699.4343,50.375 701.9343,50.375 Q702.6374,50.375 703.278,50.5313 Q703.9343,50.6875 704.4968,50.9844 L704.4968,53.7031 Q703.8718,53.125 703.278,52.8594 Q702.6843,52.5781 702.0593,52.5781 Q700.7155,52.5781 700.028,53.6563 Q699.3405,54.7188 699.3405,56.8125 Q699.3405,58.9063 700.028,59.9844 Q700.7155,61.0469 702.0593,61.0469 Q702.6843,61.0469 703.278,60.7813 Q703.8718,60.5 704.4968,59.9219 L704.4968,62.6406 Z " fill="#000000"/><text fill="#000000" font-family="sans-serif" font-size="14" lengthAdjust="spacing" textLength="38.4385" x="722.028" y="61.8467">Menu</text><line style="stroke:#181818;stroke-width:0.5;" x1="624.8" x2="825.1945" y1="73" y2="73"/><rect fill="none" height="6" style="stroke:#C82930;stroke-width:1;" width="6" x="631.8" y="83.6484"/><text fill="#000000" font-family="sans-serif" font-size="14" lengthAdjust="spacing" textLength="127.0322" x="643.8" y="89.9951">Catalogo catalogo</text><rect fill="none" height="6" style="stroke:#C82930;stroke-width:1;" width="6" x="631.8" y="99.9453"/><text fill="#000000" font-family="sans-serif" font-size="14" lengthAdjust="spacing" textLength="117.4141" x="643.8" y="106.292">Scanner scanner</text><line style="stroke:#181818;stroke-width:0.5;" x1="624.8" x2="825.1945" y1="113.5938" y2="113.5938"/><ellipse cx="634.8" cy="127.2422" fill="#84BE84" rx="3" ry="3" style="stroke:#038048;stroke-width:1;"/><text fill="#000000" font-family="sans-serif" font-size="14" lengthAdjust="spacing" textLength="176.3945" x="643.8" y="130.5889">Menu(Catalogo catalogo)</text><ellipse cx="634.8" cy="143.5391" fill="#84BE84" rx="3" ry="3" style="stroke:#038048;stroke-width:1;"/><text fill="#000000" font-family="sans-serif" font-size="14" lengthAdjust="spacing" textLength="138.5166" x="643.8" y="146.8857">void mostrarMenu()</text><ellipse cx="634.8" cy="159.8359" fill="#84BE84" rx="3" ry="3" style="stroke:#038048;stroke-width:1;"/><text fill="#000000" font-family="sans-serif" font-size="14" lengthAdjust="spacing" textLength="140.0205" x="643.8" y="163.1826">void addZapatillas()</text><ellipse cx="634.8" cy="176.1328" fill="#84BE84" rx="3" ry="3" style="stroke:#038048;stroke-width:1;"/><text fill="#000000" font-family="sans-serif" font-size="14" lengthAdjust="spacing" textLength="144.7578" x="643.8" y="179.4795">void modZapatillas()</text><ellipse cx="634.8" cy="192.4297" fill="#84BE84" rx="3" ry="3" style="stroke:#038048;stroke-width:1;"/><text fill="#000000" font-family="sans-serif" font-size="14" lengthAdjust="spacing" textLength="133.0615" x="643.8" y="195.7764">void rmZapatillas()</text><ellipse cx="634.8" cy="208.7266" fill="#84BE84" rx="3" ry="3" style="stroke:#038048;stroke-width:1;"/><text fill="#000000" font-family="sans-serif" font-size="14" lengthAdjust="spacing" textLength="124.8516" x="643.8" y="212.0732">void lsZapatillas()</text><ellipse cx="634.8" cy="225.0234" fill="#84BE84" rx="3" ry="3" style="stroke:#038048;stroke-width:1;"/><text fill="#000000" font-family="sans-serif" font-size="14" lengthAdjust="spacing" textLength="165.6348" x="643.8" y="228.3701">void consultaZapatilla()</text><ellipse cx="634.8" cy="241.3203" fill="#84BE84" rx="3" ry="3" style="stroke:#038048;stroke-width:1;"/><text fill="#000000" font-family="sans-serif" font-size="14" lengthAdjust="spacing" textLength="162.8115" x="643.8" y="244.667">int obtenerIdZapatilla()</text></g><!--class Catalogo--><g id="elem_Catalogo"><rect codeLine="17" fill="#F1F1F1" height="276.1563" id="Catalogo" rx="2.5" ry="2.5" style="stroke:#181818;stroke-width:0.5;" width="702.1357" x="21.93" y="326.97"/><ellipse cx="337.5828" cy="342.97" fill="#ADD1B2" rx="11" ry="11" style="stroke:#181818;stroke-width:1;"/><path d="M340.5516,348.6106 Q339.9735,348.9075 339.3328,349.0481 Q338.6922,349.2044 337.9891,349.2044 Q335.4891,349.2044 334.161,347.5638 Q332.8485,345.9075 332.8485,342.7825 Q332.8485,339.6575 334.161,338.0013 Q335.4891,336.345 337.9891,336.345 Q338.6922,336.345 339.3328,336.5013 Q339.9891,336.6575 340.5516,336.9544 L340.5516,339.6731 Q339.9266,339.095 339.3328,338.8294 Q338.7391,338.5481 338.1141,338.5481 Q336.7703,338.5481 336.0828,339.6263 Q335.3953,340.6888 335.3953,342.7825 Q335.3953,344.8763 336.0828,345.9544 Q336.7703,347.0169 338.1141,347.0169 Q338.7391,347.0169 339.3328,346.7513 Q339.9266,346.47 340.5516,345.8919 L340.5516,348.6106 Z " fill="#000000"/><text fill="#000000" font-family="sans-serif" font-size="14" lengthAdjust="spacing" textLength="62.3301" x="358.0828" y="347.8167">Catalogo</text><line style="stroke:#181818;stroke-width:0.5;" x1="22.93" x2="723.0657" y1="358.97" y2="358.97"/><rect fill="none" height="6" style="stroke:#C82930;stroke-width:1;" width="6" x="29.93" y="369.6184"/><text fill="#000000" font-family="sans-serif" font-size="14" lengthAdjust="spacing" textLength="256.8125" x="41.93" y="375.9651">ArrayList&lt;Zapatillas&gt; listaZapatillas</text><rect fill="none" height="6" style="stroke:#C82930;stroke-width:1;" width="6" x="29.93" y="385.9153"/><text fill="#000000" font-family="sans-serif" font-size="14" lengthAdjust="spacing" textLength="200.5322" x="41.93" y="392.262">static final String FILE_NAME</text><line style="stroke:#181818;stroke-width:0.5;" x1="22.93" x2="723.0657" y1="399.5638" y2="399.5638"/><ellipse cx="32.93" cy="413.2122" fill="#84BE84" rx="3" ry="3" style="stroke:#038048;stroke-width:1;"/><text fill="#000000" font-family="sans-serif" font-size="14" lengthAdjust="spacing" textLength="261.0576" x="41.93" y="416.5589">Catalogo() throws CatalogoException</text><ellipse cx="32.93" cy="429.5091" fill="#84BE84" rx="3" ry="3" style="stroke:#038048;stroke-width:1;"/><text fill="#000000" font-family="sans-serif" font-size="14" lengthAdjust="spacing" textLength="452.7783" x="41.93" y="432.8557">void addZapatilla(Zapatillas zapatilla) throws CatalogoException</text><ellipse cx="32.93" cy="445.8059" fill="#84BE84" rx="3" ry="3" style="stroke:#038048;stroke-width:1;"/><text fill="#000000" font-family="sans-serif" font-size="14" lengthAdjust="spacing" textLength="413.1299" x="41.93" y="449.1526">boolean eliminarZapatilla(int id) throws CatalogoException</text><ellipse cx="32.93" cy="462.1028" fill="#84BE84" rx="3" ry="3" style="stroke:#038048;stroke-width:1;"/><text fill="#000000" font-family="sans-serif" font-size="14" lengthAdjust="spacing" textLength="608.4463" x="41.93" y="465.4495">boolean modificarZapatilla(int id, Zapatillas nuevaZapatilla) throws CatalogoException</text><ellipse cx="32.93" cy="478.3997" fill="#84BE84" rx="3" ry="3" style="stroke:#038048;stroke-width:1;"/><text fill="#000000" font-family="sans-serif" font-size="14" lengthAdjust="spacing" textLength="451.5615" x="41.93" y="481.7464">Zapatillas buscarZapatillaPorId(int id) throws CatalogoException</text><ellipse cx="32.93" cy="494.6966" fill="#84BE84" rx="3" ry="3" style="stroke:#038048;stroke-width:1;"/><text fill="#000000" font-family="sans-serif" font-size="14" lengthAdjust="spacing" textLength="336.3691" x="41.93" y="498.0432">void listarZapatillas() throws CatalogoException</text><ellipse cx="32.93" cy="510.9934" fill="#84BE84" rx="3" ry="3" style="stroke:#038048;stroke-width:1;"/><text fill="#000000" font-family="sans-serif" font-size="14" lengthAdjust="spacing" textLength="362.8242" x="41.93" y="514.3401">boolean esIdUnico(int id) throws CatalogoException</text><ellipse cx="32.93" cy="527.2903" fill="#84BE84" rx="3" ry="3" style="stroke:#038048;stroke-width:1;"/><text fill="#000000" font-family="sans-serif" font-size="14" lengthAdjust="spacing" textLength="676.1357" x="41.93" y="530.637">ArrayList&lt;Zapatillas&gt; consultaZapatilla(String marca, String modelo) throws CatalogoException</text><ellipse cx="32.93" cy="543.5872" fill="#84BE84" rx="3" ry="3" style="stroke:#038048;stroke-width:1;"/><text fill="#000000" font-family="sans-serif" font-size="14" lengthAdjust="spacing" textLength="284.5869" x="41.93" y="546.9339">void escribir() throws CatalogoException</text><ellipse cx="32.93" cy="559.8841" fill="#84BE84" rx="3" ry="3" style="stroke:#038048;stroke-width:1;"/><text fill="#000000" font-family="sans-serif" font-size="14" lengthAdjust="spacing" textLength="259.6768" x="41.93" y="563.2307">void leer() throws CatalogoException</text><ellipse cx="32.93" cy="576.1809" fill="#84BE84" rx="3" ry="3" style="stroke:#038048;stroke-width:1;"/><text fill="#000000" font-family="sans-serif" font-size="14" lengthAdjust="spacing" textLength="294.6357" x="41.93" y="579.5276">ArrayList&lt;Zapatillas&gt; getListaZapatillas()</text><ellipse cx="32.93" cy="592.4778" fill="#84BE84" rx="3" ry="3" style="stroke:#038048;stroke-width:1;"/><text fill="#000000" font-family="sans-serif" font-size="14" lengthAdjust="spacing" textLength="398.1865" x="41.93" y="595.8245">boolean existeZapatilla(int id) throws CatalogoException</text></g><!--class Zapatillas--><g id="elem_Zapatillas"><rect codeLine="34" fill="#F1F1F1" height="357.6406" id="Zapatillas" rx="2.5" ry="2.5" style="stroke:#181818;stroke-width:0.5;" width="627.3779" x="77.31" y="663.13"/><ellipse cx="352.4155" cy="679.13" fill="#ADD1B2" rx="11" ry="11" style="stroke:#181818;stroke-width:1;"/><path d="M355.3842,684.7706 Q354.8061,685.0675 354.1655,685.2081 Q353.5248,685.3644 352.8217,685.3644 Q350.3217,685.3644 348.9936,683.7238 Q347.6811,682.0675 347.6811,678.9425 Q347.6811,675.8175 348.9936,674.1613 Q350.3217,672.505 352.8217,672.505 Q353.5248,672.505 354.1655,672.6613 Q354.8217,672.8175 355.3842,673.1144 L355.3842,675.8331 Q354.7592,675.255 354.1655,674.9894 Q353.5717,674.7081 352.9467,674.7081 Q351.603,674.7081 350.9155,675.7863 Q350.228,676.8488 350.228,678.9425 Q350.228,681.0363 350.9155,682.1144 Q351.603,683.1769 352.9467,683.1769 Q353.5717,683.1769 354.1655,682.9113 Q354.7592,682.63 355.3842,682.0519 L355.3842,684.7706 Z " fill="#000000"/><text fill="#000000" font-family="sans-serif" font-size="14" lengthAdjust="spacing" textLength="68.667" x="372.9155" y="683.9767">Zapatillas</text><line style="stroke:#181818;stroke-width:0.5;" x1="78.31" x2="703.6879" y1="695.13" y2="695.13"/><rect fill="none" height="6" style="stroke:#C82930;stroke-width:1;" width="6" x="85.31" y="705.7784"/><text fill="#000000" font-family="sans-serif" font-size="14" lengthAdjust="spacing" textLength="90.4805" x="97.31" y="712.1251">String marca</text><rect fill="none" height="6" style="stroke:#C82930;stroke-width:1;" width="6" x="85.31" y="722.0753"/><text fill="#000000" font-family="sans-serif" font-size="14" lengthAdjust="spacing" textLength="98.3896" x="97.31" y="728.422">String modelo</text><rect fill="none" height="6" style="stroke:#C82930;stroke-width:1;" width="6" x="85.31" y="738.3722"/><text fill="#000000" font-family="sans-serif" font-size="14" lengthAdjust="spacing" textLength="80.7051" x="97.31" y="744.7189">String color</text><rect fill="none" height="6" style="stroke:#C82930;stroke-width:1;" width="6" x="85.31" y="754.6691"/><text fill="#000000" font-family="sans-serif" font-size="14" lengthAdjust="spacing" textLength="76.6582" x="97.31" y="761.0157">String talla</text><rect fill="none" height="6" style="stroke:#C82930;stroke-width:1;" width="6" x="85.31" y="770.9659"/><text fill="#000000" font-family="sans-serif" font-size="14" lengthAdjust="spacing" textLength="95.5732" x="97.31" y="777.3126">double precio</text><rect fill="none" height="6" style="stroke:#C82930;stroke-width:1;" width="6" x="85.31" y="787.2628"/><text fill="#000000" font-family="sans-serif" font-size="14" lengthAdjust="spacing" textLength="70.0889" x="97.31" y="793.6095">final int id</text><line style="stroke:#181818;stroke-width:0.5;" x1="78.31" x2="703.6879" y1="800.9113" y2="800.9113"/><ellipse cx="88.31" cy="814.5597" fill="#84BE84" rx="3" ry="3" style="stroke:#038048;stroke-width:1;"/><text fill="#000000" font-family="sans-serif" font-size="14" lengthAdjust="spacing" textLength="601.3779" x="97.31" y="817.9064">Zapatillas(int id, String marca, String modelo, String color, String talla, double precio)</text><ellipse cx="88.31" cy="830.8566" fill="#84BE84" rx="3" ry="3" style="stroke:#038048;stroke-width:1;"/><text fill="#000000" font-family="sans-serif" font-size="14" lengthAdjust="spacing" textLength="122.835" x="97.31" y="834.2032">String getMarca()</text><ellipse cx="88.31" cy="847.1534" fill="#84BE84" rx="3" ry="3" style="stroke:#038048;stroke-width:1;"/><text fill="#000000" font-family="sans-serif" font-size="14" lengthAdjust="spacing" textLength="199.5684" x="97.31" y="850.5001">void setMarca(String marca)</text><ellipse cx="88.31" cy="863.4503" fill="#84BE84" rx="3" ry="3" style="stroke:#038048;stroke-width:1;"/><text fill="#000000" font-family="sans-serif" font-size="14" lengthAdjust="spacing" textLength="130.7441" x="97.31" y="866.797">String getModelo()</text><ellipse cx="88.31" cy="879.7472" fill="#84BE84" rx="3" ry="3" style="stroke:#038048;stroke-width:1;"/><text fill="#000000" font-family="sans-serif" font-size="14" lengthAdjust="spacing" textLength="215.3867" x="97.31" y="883.0939">void setModelo(String modelo)</text><ellipse cx="88.31" cy="896.0441" fill="#84BE84" rx="3" ry="3" style="stroke:#038048;stroke-width:1;"/><text fill="#000000" font-family="sans-serif" font-size="14" lengthAdjust="spacing" textLength="116.6963" x="97.31" y="899.3907">String getColor()</text><ellipse cx="88.31" cy="912.3409" fill="#84BE84" rx="3" ry="3" style="stroke:#038048;stroke-width:1;"/><text fill="#000000" font-family="sans-serif" font-size="14" lengthAdjust="spacing" textLength="183.6543" x="97.31" y="915.6876">void setColor(String color)</text><ellipse cx="88.31" cy="928.6378" fill="#84BE84" rx="3" ry="3" style="stroke:#038048;stroke-width:1;"/><text fill="#000000" font-family="sans-serif" font-size="14" lengthAdjust="spacing" textLength="113.6338" x="97.31" y="931.9845">String getTalla()</text><ellipse cx="88.31" cy="944.9347" fill="#84BE84" rx="3" ry="3" style="stroke:#038048;stroke-width:1;"/><text fill="#000000" font-family="sans-serif" font-size="14" lengthAdjust="spacing" textLength="176.5449" x="97.31" y="948.2814">void setTalla(String talla)</text><ellipse cx="88.31" cy="961.2316" fill="#84BE84" rx="3" ry="3" style="stroke:#038048;stroke-width:1;"/><text fill="#000000" font-family="sans-serif" font-size="14" lengthAdjust="spacing" textLength="129.042" x="97.31" y="964.5782">double getPrecio()</text><ellipse cx="88.31" cy="977.5284" fill="#84BE84" rx="3" ry="3" style="stroke:#038048;stroke-width:1;"/><text fill="#000000" font-family="sans-serif" font-size="14" lengthAdjust="spacing" textLength="204.9346" x="97.31" y="980.8751">void setPrecio(double precio)</text><ellipse cx="88.31" cy="993.8253" fill="#84BE84" rx="3" ry="3" style="stroke:#038048;stroke-width:1;"/><text fill="#000000" font-family="sans-serif" font-size="14" lengthAdjust="spacing" textLength="69.6309" x="97.31" y="997.172">int getId()</text><ellipse cx="88.31" cy="1010.1222" fill="#84BE84" rx="3" ry="3" style="stroke:#038048;stroke-width:1;"/><text fill="#000000" font-family="sans-serif" font-size="14" lengthAdjust="spacing" textLength="112.9912" x="97.31" y="1013.4689">String toString()</text></g><!--class CatalogoException--><g id="elem_CatalogoException"><rect codeLine="58" fill="#F1F1F1" height="80.5938" id="CatalogoException" rx="2.5" ry="2.5" style="stroke:#181818;stroke-width:0.5;" width="401.6689" x="882.17" y="424.75"/><ellipse cx="1013.0167" cy="440.75" fill="#ADD1B2" rx="11" ry="11" style="stroke:#181818;stroke-width:1;"/><path d="M1015.9854,446.3906 Q1015.4073,446.6875 1014.7667,446.8281 Q1014.1261,446.9844 1013.4229,446.9844 Q1010.9229,446.9844 1009.5948,445.3438 Q1008.2823,443.6875 1008.2823,440.5625 Q1008.2823,437.4375 1009.5948,435.7813 Q1010.9229,434.125 1013.4229,434.125 Q1014.1261,434.125 1014.7667,434.2813 Q1015.4229,434.4375 1015.9854,434.7344 L1015.9854,437.4531 Q1015.3604,436.875 1014.7667,436.6094 Q1014.1729,436.3281 1013.5479,436.3281 Q1012.2042,436.3281 1011.5167,437.4063 Q1010.8292,438.4688 1010.8292,440.5625 Q1010.8292,442.6563 1011.5167,443.7344 Q1012.2042,444.7969 1013.5479,444.7969 Q1014.1729,444.7969 1014.7667,444.5313 Q1015.3604,444.25 1015.9854,443.6719 L1015.9854,446.3906 Z " fill="#000000"/><text fill="#000000" font-family="sans-serif" font-size="14" lengthAdjust="spacing" textLength="131.4756" x="1033.5167" y="445.5967">CatalogoException</text><line style="stroke:#181818;stroke-width:0.5;" x1="883.17" x2="1282.8389" y1="456.75" y2="456.75"/><line style="stroke:#181818;stroke-width:0.5;" x1="883.17" x2="1282.8389" y1="464.75" y2="464.75"/><ellipse cx="893.17" cy="478.3984" fill="#84BE84" rx="3" ry="3" style="stroke:#038048;stroke-width:1;"/><text fill="#000000" font-family="sans-serif" font-size="14" lengthAdjust="spacing" textLength="248.1309" x="902.17" y="481.7451">CatalogoException(String mensaje)</text><ellipse cx="893.17" cy="494.6953" fill="#84BE84" rx="3" ry="3" style="stroke:#038048;stroke-width:1;"/><text fill="#000000" font-family="sans-serif" font-size="14" lengthAdjust="spacing" textLength="375.6689" x="902.17" y="498.042">CatalogoException(String mensaje, Throwable causa)</text></g><!--class Exception--><g id="elem_Exception"><rect fill="#F1F1F1" height="48" id="Exception" rx="2.5" ry="2.5" style="stroke:#181818;stroke-width:0.5;" width="101.1455" x="1032.43" y="122.49"/><ellipse cx="1047.43" cy="138.49" fill="#ADD1B2" rx="11" ry="11" style="stroke:#181818;stroke-width:1;"/><path d="M1050.3988,144.1306 Q1049.8206,144.4275 1049.18,144.5681 Q1048.5394,144.7244 1047.8363,144.7244 Q1045.3363,144.7244 1044.0081,143.0838 Q1042.6956,141.4275 1042.6956,138.3025 Q1042.6956,135.1775 1044.0081,133.5213 Q1045.3363,131.865 1047.8363,131.865 Q1048.5394,131.865 1049.18,132.0213 Q1049.8363,132.1775 1050.3988,132.4744 L1050.3988,135.1931 Q1049.7738,134.615 1049.18,134.3494 Q1048.5863,134.0681 1047.9613,134.0681 Q1046.6175,134.0681 1045.93,135.1463 Q1045.2425,136.2088 1045.2425,138.3025 Q1045.2425,140.3963 1045.93,141.4744 Q1046.6175,142.5369 1047.9613,142.5369 Q1048.5863,142.5369 1049.18,142.2713 Q1049.7738,141.99 1050.3988,141.4119 L1050.3988,144.1306 Z " fill="#000000"/><text fill="#000000" font-family="sans-serif" font-size="14" lengthAdjust="spacing" textLength="69.1455" x="1061.43" y="143.3367">Exception</text><line style="stroke:#181818;stroke-width:0.5;" x1="1033.43" x2="1132.5755" y1="154.49" y2="154.49"/><line style="stroke:#181818;stroke-width:0.5;" x1="1033.43" x2="1132.5755" y1="162.49" y2="162.49"/></g><!--reverse link Exception to CatalogoException--><g id="link_Exception_CatalogoException"><path d="M1083,188.77 C1083,242.45 1083,357.46 1083,424.33 " fill="none" id="Exception-backto-CatalogoException" style="stroke:#181818;stroke-width:1;"/><polygon fill="none" points="1083,170.77,1077,188.77,1089,188.77,1083,170.77" style="stroke:#181818;stroke-width:1;"/></g><!--link Menu to Catalogo--><g id="link_Menu_Catalogo"><path codeLine="64" d="M623.66,238.63 C593.09,266.12 563.3015,292.9081 530.1615,322.7081 " fill="none" id="Menu-to-Catalogo" style="stroke:#181818;stroke-width:1;"/><polygon fill="#181818" points="525.7,326.72,535.0668,323.6766,529.4179,323.3768,529.7177,317.7279,525.7,326.72" style="stroke:#181818;stroke-width:1;"/></g><!--link Menu to Zapatillas--><g id="link_Menu_Zapatillas"><path codeLine="65" d="M757.36,252.27 C780.95,349.17 799.77,494.21 742,603.13 C730.62,624.59 720.3164,639.9769 704.0764,658.3269 " fill="none" id="Menu-to-Zapatillas" style="stroke:#181818;stroke-width:1;"/><polygon fill="#181818" points="700.1,662.82,709.0601,658.7313,703.4137,659.0758,703.0693,653.4294,700.1,662.82" style="stroke:#181818;stroke-width:1;"/></g><!--link Menu to CatalogoException--><g id="link_Menu_CatalogoException"><path codeLine="66" d="M826.39,240.43 C839.67,252.44 853.13,264.53 866,275.97 C924.32,327.8 987.8748,382.6449 1032.0148,420.4849 " fill="none" id="Menu-to-CatalogoException" style="stroke:#181818;stroke-width:1;"/><polygon fill="#181818" points="1036.57,424.39,1032.3405,415.4955,1032.774,421.1358,1027.1337,421.5692,1036.57,424.39" style="stroke:#181818;stroke-width:1;"/></g><!--link Catalogo to Zapatillas--><g id="link_Catalogo_Zapatillas"><path codeLine="67" d="M379.6,603.52 C380.53,622.85 381.2016,636.9569 382.1616,656.9069 " fill="none" id="Catalogo-to-Zapatillas" style="stroke:#181818;stroke-width:1;"/><polygon fill="#181818" points="382.45,662.9,386.0128,653.7181,382.2097,657.9058,378.022,654.1027,382.45,662.9" style="stroke:#181818;stroke-width:1;"/></g><!--SRC=[bLPDRzim3BtdL-YOOCu_60eKHGO4I8O2xIwx3BJCPEeKoP3ahclH_pxwIwPhrOXzYK5IZqzFZrPAa7_WZ4APWEu4h-9j9UYH6hmNHpHL5wYVhRY30DgUhP3T2yizI306dV3jRynyQM3MawKRLl5iLI4krWS7hgcU9A4eVa89GMbYjawidKsxornM-xcijCPNEa2i6PMGRiBc0Md7- -9ZoVlgVRKgEuKBUr56sP70KHGkygrpyE-WVFWwqBeHcW831y_gAHwK52TbG8k7u9GvYs_xm-xNzzlZZb7jcwqt8lnszk_GVlSYiGpAcZdLrqDpyTg_NWMLMwiHZ42jI09m0sIjdYeMWT19gvEIKvHCC8AcmkT1hQiQiDLvvNc3UqjdkuHhwwhwm1ntrYAj_BxuOPIqI_gcdJCrS6UI2pW9MMyP4XQrlNv_wALJkN8BxAGHhonFx-ICuJ0UWz4iHkrUg0WNkemcTPXBvWK-cLotHBWHS1gNLbit3HC9pL4AM-KQHUbGAexIpdMxXwHTe_zdZZKRaSb67B9nQwveLqQw7slGwSVHzndU-nE4XaWQeasDZPW4kQlf9p7Q3Dzb6k4HFdx2UuGsmvNXLPr6X73Vo9I4w5AVwbcV527GroH1BjZs9NLvOErL0ZFeanT8z39LqcLKU354tX9tGCn6qT5uUCBDWjfCFDO31VLM9LGU6E_cdyDsUnD1XWYxmoPLmqZ6ct6yv3y0]--></g></svg>